<svg xmlns="http://www.w3.org/2000/svg" viewBox="0 0 200 200" width="200" height="200">
  <defs>
    <clipPath id="earClip"><path d="M 46 84 Q 38 52 50 37 Q 59 28 70 34 Q 90 46 99 70 Z"/></clipPath>
    <clipPath id="headClip"><ellipse cx="100" cy="100" rx="58" ry="47"/></clipPath>
    <clipPath id="tailClip"><path d="M 120 168 C 168 184 200 150 186 108 C 181 92 166 88 160 98 C 155 106 160 118 152 130 C 145 141 132 147 118 150 Z"/></clipPath>
  </defs>
  <ellipse cx="100" cy="185" rx="44" ry="6" fill="#000" opacity="0.07"/>
  <g transform="rotate(6 118 154)">
    <path d="M 120 168 C 168 184 200 150 186 108 C 181 92 166 88 160 98 C 155 106 160 118 152 130 C 145 141 132 147 118 150 Z" fill="#F7893B"/>
    <path d="M 136 60 L 212 60 L 212 118 Q 204 128 194 120 Q 186 130 176 121 Q 166 130 158 120 Q 148 124 142 114 Z" fill="#FFF4E6" clip-path="url(#tailClip)"/>
  </g>
  <g transform="rotate(8 78 78)">
    <path d="M 46 84 Q 38 52 50 37 Q 59 28 70 34 Q 90 46 99 70 Z" fill="#F7893B"/>
    <path d="M 57 76 Q 52 54 59 45 Q 64 41 68 45 Q 82 54 90 71 Z" fill="#FF9FAE" opacity="0.55"/>
    <rect x="0" y="0" width="120" height="44" fill="#3A2A22" clip-path="url(#earClip)"/>
  </g>
  <g transform="translate(200 0) scale(-1 1) rotate(-8 78 78)">
    <path d="M 46 84 Q 38 52 50 37 Q 59 28 70 34 Q 90 46 99 70 Z" fill="#F7893B"/>
    <path d="M 57 76 Q 52 54 59 45 Q 64 41 68 45 Q 82 54 90 71 Z" fill="#FF9FAE" opacity="0.55"/>
    <rect x="0" y="0" width="120" height="44" fill="#3A2A22" clip-path="url(#earClip)"/>
  </g>
  <ellipse cx="100" cy="157" rx="25" ry="21" fill="#F7893B"/>
  <ellipse cx="100" cy="162" rx="14" ry="12" fill="#FFF4E6"/>
  <ellipse cx="87" cy="177" rx="8" ry="5" fill="#3A2A22"/><ellipse cx="113" cy="177" rx="8" ry="5" fill="#3A2A22"/>
  <path d="M 60 104 L 34 124 L 56 130 Z" fill="#FFF4E6"/><path d="M 60 104 L 34 124 L 56 130 Z" fill="#FFF4E6" transform="translate(200 0) scale(-1 1)"/>
  <ellipse cx="100" cy="100" rx="58" ry="47" fill="#F7893B"/>
  <path d="M 0 128 Q 64 112 100 128 Q 136 112 200 128 L 200 200 L 0 200 Z" fill="#FFF4E6" clip-path="url(#headClip)"/>
  <ellipse cx="70" cy="98" rx="9.5" ry="11" fill="#3A2A22"/><circle cx="67" cy="94" r="4" fill="#fff"/>
  <ellipse cx="130" cy="98" rx="9.5" ry="11" fill="#3A2A22"/><circle cx="127" cy="94" r="4" fill="#fff"/>
  <ellipse cx="100" cy="117" rx="4.4" ry="3.2" fill="#3A2A22"/>
  <path d="M 95 127 Q 102 125 107 123" stroke="#3A2A22" stroke-width="2.4" fill="none" stroke-linecap="round"/>
  <ellipse cx="52" cy="119" rx="9" ry="5.5" fill="#FF9FAE" opacity="0.75"/><ellipse cx="148" cy="119" rx="9" ry="5.5" fill="#FF9FAE" opacity="0.75"/>
  <circle cx="150" cy="74" r="2.5" fill="#8E7CF7"/>
  <circle cx="156" cy="64" r="3.5" fill="#8E7CF7"/>
  <path d="M 160 48 Q 160 42 166 42 Q 172 42 172 48 Q 172 53 166 55 L 166 58" stroke="#8E7CF7" stroke-width="3" fill="none" stroke-linecap="round"/>
  <circle cx="166" cy="61" r="1.8" fill="#8E7CF7"/>
</svg>
